<svg xmlns="http://www.w3.org/2000/svg" viewBox="0 0 64 64" role="img" aria-label="SoulPrompts">
  <defs>
    <linearGradient id="ink" x1="0%" y1="0%" x2="100%" y2="100%">
      <stop offset="0%" stop-color="#fbf5e9" />
      <stop offset="100%" stop-color="#f28b50" />
    </linearGradient>
  </defs>
  <rect width="64" height="64" rx="18" fill="#17352c" />
  <path d="M18 32c0-10.1 7.8-18 18-18 5.9 0 11.3 2.5 14.9 7l-5.8 4.4c-2-2.5-5-4-8.4-4-5.9 0-10.3 4.2-10.3 10.1s4.4 10.1 10.3 10.1c3.4 0 6.4-1.5 8.4-4l5.8 4.4c-3.6 4.5-9 7-14.9 7-10.2 0-18-7.9-18-18z" fill="url(#ink)" />
  <circle cx="46.5" cy="18.5" r="4.5" fill="#f7caa2" />
</svg>
